<svg xmlns="http://www.w3.org/2000/svg" xmlns:xlink="http://www.w3.org/1999/xlink" width="500" zoomAndPan="magnify" viewBox="0 0 375 374.999991" height="500" preserveAspectRatio="xMidYMid meet" version="1.0"><defs><g/><clipPath id="c3d16f3ca4"><path d="M 62.417969 62.335938 L 312.582031 62.335938 L 312.582031 312.5 L 62.417969 312.5 Z M 62.417969 62.335938 " clip-rule="nonzero"/></clipPath><clipPath id="73b5e71520"><path d="M 187.5 62.335938 C 118.417969 62.335938 62.417969 118.335938 62.417969 187.417969 C 62.417969 256.5 118.417969 312.5 187.5 312.5 C 256.582031 312.5 312.582031 256.5 312.582031 187.417969 C 312.582031 118.335938 256.582031 62.335938 187.5 62.335938 Z M 187.5 62.335938 " clip-rule="nonzero"/></clipPath><clipPath id="6eaf706bfa"><path d="M 117 116.917969 L 258 116.917969 L 258 257.917969 L 117 257.917969 Z M 117 116.917969 " clip-rule="nonzero"/></clipPath><clipPath id="281c526249"><path d="M 187.5 257.917969 C 168.675781 257.917969 150.953125 250.589844 137.652344 237.265625 C 124.324219 223.964844 117 206.242188 117 187.417969 C 117 168.59375 124.324219 150.871094 137.652344 137.570312 C 150.953125 124.242188 168.675781 116.917969 187.5 116.917969 C 206.324219 116.917969 224.046875 124.242188 237.347656 137.570312 C 250.675781 150.898438 258 168.59375 258 187.417969 C 258 206.242188 250.675781 223.964844 237.347656 237.265625 C 224.046875 250.589844 206.324219 257.917969 187.5 257.917969 Z M 187.5 121.144531 C 169.804688 121.144531 153.152344 128.046875 140.640625 140.558594 C 128.128906 153.070312 121.226562 169.722656 121.226562 187.417969 C 121.226562 205.113281 128.128906 221.765625 140.640625 234.277344 C 153.152344 246.789062 169.804688 253.691406 187.5 253.691406 C 205.195312 253.691406 221.847656 246.789062 234.359375 234.277344 C 246.871094 221.765625 253.773438 205.113281 253.773438 187.417969 C 253.773438 169.722656 246.871094 153.070312 234.359375 140.558594 C 221.847656 128.046875 205.195312 121.144531 187.5 121.144531 Z M 187.5 121.144531 " clip-rule="nonzero"/></clipPath><clipPath id="01accdc4e4"><path d="M 58.5 58.5 L 316.5 58.5 L 316.5 316.5 L 58.5 316.5 Z M 58.5 58.5 " clip-rule="nonzero"/></clipPath><clipPath id="06132915a0"><path d="M 187.5 316.5 C 153.058594 316.5 120.628906 303.09375 96.292969 278.707031 C 71.90625 254.371094 58.5 221.941406 58.5 187.5 C 58.5 153.058594 71.90625 120.628906 96.292969 96.292969 C 120.628906 71.90625 153.058594 58.5 187.5 58.5 C 221.941406 58.5 254.371094 71.90625 278.707031 96.292969 C 303.09375 120.679688 316.5 153.058594 316.5 187.5 C 316.5 221.941406 303.09375 254.371094 278.707031 278.707031 C 254.371094 303.09375 221.941406 316.5 187.5 316.5 Z M 187.5 66.234375 C 155.121094 66.234375 124.648438 78.867188 101.757812 101.757812 C 78.867188 124.648438 66.234375 155.121094 66.234375 187.5 C 66.234375 219.878906 78.867188 250.351562 101.757812 273.242188 C 124.648438 296.132812 155.121094 308.765625 187.5 308.765625 C 219.878906 308.765625 250.351562 296.132812 273.242188 273.242188 C 296.132812 250.351562 308.765625 219.878906 308.765625 187.5 C 308.765625 155.121094 296.132812 124.648438 273.242188 101.757812 C 250.351562 78.867188 219.878906 66.234375 187.5 66.234375 Z M 187.5 66.234375 " clip-rule="nonzero"/></clipPath><clipPath id="0e7b33ede5"><path d="M 80.125 145.417969 L 294.625 145.417969 L 294.625 236.917969 L 80.125 236.917969 Z M 80.125 145.417969 " clip-rule="nonzero"/></clipPath><clipPath id="f6b5bfc566"><path d="M 210.695312 120.777344 L 270.710938 120.777344 L 270.710938 196.273438 L 210.695312 196.273438 Z M 210.695312 120.777344 " clip-rule="nonzero"/></clipPath><clipPath id="d3d534d7be"><path d="M 146 113.476562 L 196 113.476562 L 196 171 L 146 171 Z M 146 113.476562 " clip-rule="nonzero"/></clipPath><clipPath id="07c679834b"><path d="M 128.710938 241.234375 L 148.667969 241.234375 L 148.667969 261.226562 L 128.710938 261.226562 Z M 128.710938 241.234375 " clip-rule="nonzero"/></clipPath></defs><g clip-path="url(#c3d16f3ca4)"><g clip-path="url(#73b5e71520)"><path fill="#ffffff" d="M 62.417969 62.335938 L 312.582031 62.335938 L 312.582031 312.5 L 62.417969 312.5 Z M 62.417969 62.335938 " fill-opacity="1" fill-rule="nonzero"/></g></g><g clip-path="url(#6eaf706bfa)"><g clip-path="url(#281c526249)"><path fill="#112241" d="M 117 116.917969 L 258 116.917969 L 258 257.917969 L 117 257.917969 Z M 117 116.917969 " fill-opacity="1" fill-rule="nonzero"/></g></g><g clip-path="url(#01accdc4e4)"><g clip-path="url(#06132915a0)"><path fill="#112241" d="M 58.5 58.5 L 316.5 58.5 L 316.5 316.5 L 58.5 316.5 Z M 58.5 58.5 " fill-opacity="1" fill-rule="nonzero"/></g></g><g clip-path="url(#0e7b33ede5)"><path fill="#112241" d="M 288.226562 216.128906 C 285.503906 225.394531 281.347656 234.191406 276.191406 242.289062 C 271.933594 248.878906 267.089844 255.074219 261.648438 260.707031 C 260.945312 261.476562 260.160156 262.167969 259.410156 262.894531 C 258.652344 263.605469 257.914062 264.34375 257.136719 265.039062 L 254.777344 267.089844 L 253.601562 268.117188 L 252.375 269.089844 L 249.933594 271.042969 C 249.105469 271.675781 248.25 272.273438 247.414062 272.890625 C 245.757812 274.160156 243.996094 275.277344 242.269531 276.449219 C 242.019531 276.617188 241.757812 276.792969 241.484375 276.976562 C 241.203125 277.144531 240.914062 277.320312 240.605469 277.503906 C 240 277.867188 239.34375 278.257812 238.644531 278.675781 C 237.265625 279.542969 235.636719 280.355469 233.875 281.292969 C 233.433594 281.523438 232.988281 281.769531 232.519531 281.996094 C 232.046875 282.214844 231.570312 282.4375 231.078125 282.664062 C 230.101562 283.117188 229.085938 283.585938 228.039062 284.070312 C 225.894531 284.90625 223.65625 285.914062 221.21875 286.695312 C 211.585938 290.1875 199.5625 292.347656 187.5 292.398438 C 175.433594 292.347656 163.414062 290.1875 153.78125 286.695312 C 151.339844 285.914062 149.101562 284.90625 146.957031 284.070312 C 145.910156 283.585938 144.898438 283.117188 143.917969 282.664062 C 143.429688 282.4375 142.949219 282.214844 142.476562 281.996094 C 142.007812 281.773438 141.566406 281.523438 141.121094 281.292969 C 139.363281 280.359375 137.730469 279.542969 136.351562 278.675781 C 135.652344 278.257812 135 277.867188 134.390625 277.503906 C 134.085938 277.320312 133.792969 277.144531 133.511719 276.976562 C 133.238281 276.792969 132.976562 276.617188 132.730469 276.449219 C 126.175781 272.15625 120.019531 267.277344 114.421875 261.796875 C 108.519531 255.898438 103.355469 249.292969 98.808594 242.289062 C 93.648438 234.191406 89.492188 225.394531 86.769531 216.128906 C 83.933594 206.890625 82.621094 197.195312 82.539062 187.5 C 82.621094 177.800781 83.933594 168.105469 86.769531 158.867188 C 89.492188 149.601562 93.648438 140.808594 98.804688 132.707031 C 103.0625 126.117188 107.90625 119.921875 113.347656 114.289062 C 114.050781 113.519531 114.835938 112.828125 115.585938 112.101562 C 116.34375 111.390625 117.082031 110.652344 117.859375 109.957031 L 120.21875 107.90625 L 121.398438 106.878906 L 122.621094 105.90625 L 125.0625 103.953125 C 125.890625 103.320312 126.746094 102.722656 127.582031 102.105469 C 129.238281 100.835938 131.003906 99.71875 132.726562 98.546875 C 132.976562 98.378906 133.238281 98.203125 133.511719 98.019531 C 133.792969 97.851562 134.085938 97.675781 134.390625 97.492188 C 134.996094 97.128906 135.652344 96.738281 136.351562 96.320312 C 137.730469 95.453125 139.359375 94.640625 141.121094 93.703125 C 141.566406 93.476562 142.007812 93.226562 142.476562 93 C 142.949219 92.78125 143.429688 92.558594 143.917969 92.332031 C 144.894531 91.878906 145.910156 91.410156 146.957031 90.925781 C 149.101562 90.089844 151.339844 89.082031 153.777344 88.300781 C 163.414062 84.808594 175.433594 82.648438 187.5 82.597656 C 199.5625 82.648438 211.585938 84.808594 221.214844 88.300781 C 223.65625 89.082031 225.894531 90.089844 228.039062 90.925781 C 229.085938 91.410156 230.097656 91.878906 231.078125 92.332031 C 231.566406 92.558594 232.046875 92.78125 232.519531 93 C 232.988281 93.222656 233.429688 93.476562 233.875 93.703125 C 235.632812 94.636719 237.265625 95.453125 238.644531 96.320312 C 239.34375 96.738281 239.996094 97.128906 240.605469 97.492188 C 240.910156 97.675781 241.203125 97.851562 241.484375 98.019531 C 241.757812 98.203125 242.019531 98.378906 242.265625 98.546875 C 248.820312 102.839844 254.976562 107.71875 260.574219 113.199219 C 266.476562 119.097656 271.640625 125.703125 276.1875 132.707031 C 281.347656 140.804688 285.503906 149.601562 288.226562 158.867188 C 291.0625 168.105469 292.375 177.800781 292.457031 187.5 C 292.375 197.195312 291.0625 206.890625 288.226562 216.128906 Z M 294.871094 187.425781 L 294.867188 187.417969 C 294.78125 177.519531 293.449219 167.613281 290.5625 158.164062 C 287.789062 148.691406 283.542969 139.699219 278.246094 131.4375 L 275.699219 127.609375 C 275.699219 127.609375 274.960938 126.582031 273.859375 125.039062 C 272.796875 123.460938 271.171875 121.519531 269.617188 119.523438 C 267.941406 117.628906 266.339844 115.671875 264.988281 114.335938 C 263.675781 112.964844 262.800781 112.054688 262.800781 112.054688 C 262.800781 112.054688 262.582031 111.828125 262.183594 111.445312 C 261.785156 111.0625 261.21875 110.511719 260.535156 109.855469 C 259.207031 108.5 257.273438 106.867188 255.382812 105.191406 C 254.410156 104.382812 253.410156 103.609375 252.484375 102.867188 C 252.023438 102.5 251.574219 102.140625 251.148438 101.804688 C 250.707031 101.484375 250.292969 101.1875 249.90625 100.910156 C 248.371094 99.796875 247.34375 99.058594 247.34375 99.058594 C 247.34375 99.058594 247.121094 98.878906 246.757812 98.644531 C 246.402344 98.40625 245.925781 98.085938 245.449219 97.765625 C 244.496094 97.128906 243.539062 96.488281 243.539062 96.488281 C 243.285156 96.316406 243.019531 96.136719 242.742188 95.949219 C 242.453125 95.773438 242.15625 95.59375 241.84375 95.40625 C 241.222656 95.03125 240.550781 94.628906 239.839844 94.203125 C 238.429688 93.3125 236.761719 92.476562 234.960938 91.515625 C 234.507812 91.28125 234.050781 91.023438 233.574219 90.796875 C 233.09375 90.570312 232.601562 90.339844 232.101562 90.109375 C 231.101562 89.644531 230.0625 89.164062 228.992188 88.667969 C 226.796875 87.804688 224.507812 86.777344 222.007812 85.972656 C 212.152344 82.390625 199.84375 80.171875 187.5 80.125 C 175.152344 80.171875 162.84375 82.390625 152.984375 85.972656 C 150.488281 86.777344 148.199219 87.804688 146.003906 88.667969 C 144.933594 89.164062 143.898438 89.644531 142.894531 90.109375 C 142.394531 90.34375 141.902344 90.570312 141.421875 90.796875 C 140.941406 91.023438 140.488281 91.28125 140.035156 91.515625 C 138.234375 92.476562 136.566406 93.3125 135.15625 94.203125 C 134.445312 94.628906 133.773438 95.03125 133.152344 95.40625 C 132.839844 95.59375 132.542969 95.777344 132.253906 95.949219 C 131.976562 96.136719 131.710938 96.316406 131.453125 96.488281 C 131.453125 96.488281 130.5 97.128906 129.546875 97.765625 C 129.070312 98.085938 128.59375 98.40625 128.238281 98.644531 C 127.875 98.878906 127.652344 99.058594 127.652344 99.058594 C 127.652344 99.058594 126.628906 99.796875 125.089844 100.910156 C 124.703125 101.1875 124.289062 101.484375 123.847656 101.804688 C 123.421875 102.140625 122.976562 102.5 122.511719 102.867188 C 121.585938 103.609375 120.585938 104.382812 119.617188 105.191406 C 117.722656 106.867188 115.792969 108.5 114.460938 109.855469 C 113.777344 110.511719 113.210938 111.0625 112.8125 111.445312 C 112.414062 111.828125 112.195312 112.054688 112.195312 112.054688 C 112.195312 112.054688 111.320312 112.964844 110.007812 114.335938 C 108.65625 115.671875 107.054688 117.628906 105.378906 119.523438 C 103.824219 121.519531 102.199219 123.460938 101.136719 125.039062 C 100.03125 126.582031 99.296875 127.609375 99.296875 127.609375 L 96.75 131.4375 C 91.453125 139.699219 87.207031 148.691406 84.433594 158.164062 C 81.546875 167.613281 80.214844 177.519531 80.128906 187.417969 L 80.125 187.425781 L 80.125 187.570312 L 80.128906 187.578125 C 80.214844 197.476562 81.546875 207.386719 84.433594 216.832031 C 87.207031 226.304688 91.453125 235.300781 96.75 243.558594 L 99.296875 247.386719 C 99.296875 247.386719 100.035156 248.414062 101.136719 249.960938 C 102.199219 251.535156 103.824219 253.476562 105.378906 255.472656 C 107.054688 257.367188 108.65625 259.324219 110.007812 260.660156 C 111.320312 262.027344 112.195312 262.941406 112.195312 262.941406 C 112.195312 262.941406 112.414062 263.167969 112.8125 263.550781 C 113.210938 263.933594 113.777344 264.484375 114.460938 265.140625 C 115.792969 266.496094 117.722656 268.128906 119.617188 269.804688 C 120.585938 270.613281 121.585938 271.386719 122.511719 272.128906 C 122.976562 272.496094 123.421875 272.855469 123.847656 273.191406 C 124.289062 273.511719 124.703125 273.808594 125.089844 274.085938 C 126.628906 275.199219 127.652344 275.9375 127.652344 275.9375 C 127.652344 275.9375 127.875 276.117188 128.238281 276.351562 C 128.59375 276.589844 129.070312 276.910156 129.546875 277.230469 C 130.5 277.867188 131.457031 278.507812 131.457031 278.507812 C 131.710938 278.679688 131.976562 278.859375 132.253906 279.046875 C 132.542969 279.222656 132.839844 279.402344 133.152344 279.589844 C 133.773438 279.964844 134.445312 280.367188 135.15625 280.792969 C 136.566406 281.683594 138.234375 282.519531 140.035156 283.480469 C 140.488281 283.714844 140.945312 283.972656 141.421875 284.199219 C 141.902344 284.425781 142.394531 284.65625 142.894531 284.886719 C 143.898438 285.351562 144.933594 285.832031 146.003906 286.328125 C 148.199219 287.191406 150.488281 288.21875 152.988281 289.023438 C 162.84375 292.605469 175.152344 294.820312 187.5 294.871094 C 199.84375 294.820312 212.152344 292.605469 222.011719 289.023438 C 224.507812 288.21875 226.796875 287.191406 228.992188 286.328125 C 230.0625 285.832031 231.101562 285.351562 232.101562 284.886719 C 232.601562 284.652344 233.09375 284.425781 233.574219 284.199219 C 234.054688 283.972656 234.507812 283.714844 234.960938 283.480469 C 236.761719 282.519531 238.429688 281.683594 239.839844 280.792969 C 240.550781 280.367188 241.222656 279.964844 241.84375 279.589844 C 242.15625 279.402344 242.453125 279.21875 242.742188 279.046875 C 243.019531 278.859375 243.285156 278.679688 243.542969 278.507812 C 243.542969 278.507812 244.496094 277.867188 245.449219 277.230469 C 245.925781 276.910156 246.402344 276.589844 246.757812 276.351562 C 247.121094 276.117188 247.34375 275.9375 247.34375 275.9375 C 247.34375 275.9375 248.371094 275.199219 249.90625 274.085938 C 250.292969 273.808594 250.707031 273.511719 251.148438 273.191406 C 251.574219 272.855469 252.023438 272.496094 252.484375 272.128906 C 253.410156 271.386719 254.410156 270.613281 255.382812 269.804688 C 257.273438 268.128906 259.207031 266.496094 260.535156 265.140625 C 261.21875 264.484375 261.785156 263.933594 262.183594 263.550781 C 262.582031 263.167969 262.800781 262.941406 262.800781 262.941406 C 262.800781 262.941406 263.675781 262.027344 264.988281 260.660156 C 266.339844 259.324219 267.941406 257.367188 269.617188 255.472656 C 271.171875 253.476562 272.796875 251.535156 273.859375 249.960938 C 274.964844 248.414062 275.699219 247.386719 275.699219 247.386719 L 278.246094 243.558594 C 283.542969 235.300781 287.789062 226.304688 290.5625 216.832031 C 293.449219 207.382812 294.78125 197.476562 294.867188 187.578125 L 294.871094 187.570312 L 294.871094 187.425781 " fill-opacity="1" fill-rule="nonzero"/></g><path fill="#97c1c8" d="M 213.890625 229.203125 C 221.96875 231.601562 230.460938 226.992188 232.855469 218.914062 L 233.21875 217.691406 C 235.613281 209.609375 231.007812 201.121094 222.929688 198.722656 C 214.847656 196.328125 206.359375 200.9375 203.964844 209.015625 L 203.601562 210.238281 C 201.203125 218.316406 205.8125 226.808594 213.890625 229.203125 " fill-opacity="1" fill-rule="nonzero"/><g clip-path="url(#f6b5bfc566)"><path fill="#97c1c8" d="M 246.074219 123.191406 C 232.03125 119.023438 222.496094 120.820312 215.925781 125.90625 C 207.734375 132.246094 210.234375 145.222656 220.164062 148.167969 L 220.898438 148.382812 C 226.152344 149.941406 231.671875 147.75 234.753906 143.222656 C 235.710938 141.820312 236.765625 141.257812 238.101562 141.65625 C 240.398438 142.335938 240.910156 143.988281 239.636719 148.277344 C 238.09375 153.484375 235.914062 156.335938 230.433594 160.210938 C 220.402344 167.066406 214.816406 172.410156 211.726562 182.824219 L 210.957031 185.429688 C 210.53125 186.867188 211.351562 188.378906 212.789062 188.804688 L 236.835938 195.9375 C 238.273438 196.363281 239.785156 195.542969 240.210938 194.105469 C 241.621094 189.355469 243.84375 186.351562 251.875 180.066406 C 260.847656 173.394531 265.949219 170.242188 269.265625 159.0625 C 273.535156 144.664062 269.664062 130.183594 246.074219 123.191406 " fill-opacity="1" fill-rule="nonzero"/></g><path fill="#97c1c8" d="M 169.367188 200.226562 C 175.957031 200.261719 181.328125 194.945312 181.363281 188.355469 L 181.367188 187.355469 C 181.402344 180.765625 176.085938 175.394531 169.496094 175.359375 C 162.902344 175.324219 157.535156 180.640625 157.5 187.230469 L 157.492188 188.230469 C 157.457031 194.820312 162.773438 200.191406 169.367188 200.226562 " fill-opacity="1" fill-rule="nonzero"/><g clip-path="url(#d3d534d7be)"><path fill="#97c1c8" d="M 170.382812 113.566406 C 158.921875 113.503906 152.15625 116.9375 148.328125 122.195312 C 143.5625 128.742188 148.273438 137.945312 156.375 137.988281 L 156.976562 137.988281 C 161.261719 138.011719 164.925781 135.160156 166.253906 131.085938 C 166.664062 129.824219 167.335938 129.171875 168.425781 129.175781 C 170.300781 129.1875 171.042969 130.316406 171.027344 133.8125 C 171.003906 138.0625 169.988281 140.683594 166.71875 144.789062 C 160.683594 152.132812 157.65625 157.363281 157.609375 165.863281 L 157.597656 167.988281 C 157.59375 169.160156 158.539062 170.117188 159.710938 170.121094 L 179.332031 170.226562 C 180.507812 170.230469 181.464844 169.285156 181.46875 168.113281 C 181.488281 164.238281 182.503906 161.492188 187.164062 155.019531 C 192.445312 148.050781 195.589844 144.566406 195.636719 135.441406 C 195.699219 123.695312 189.628906 113.664062 170.382812 113.566406 " fill-opacity="1" fill-rule="nonzero"/></g><g clip-path="url(#07c679834b)"><path fill="#97c1c8" d="M 141.699219 261.078125 C 146.796875 259.484375 149.636719 254.0625 148.042969 248.96875 L 147.800781 248.195312 C 146.210938 243.097656 140.789062 240.257812 135.691406 241.847656 C 130.59375 243.441406 127.753906 248.863281 129.347656 253.960938 L 129.585938 254.734375 C 131.179688 259.832031 136.601562 262.671875 141.699219 261.078125 " fill-opacity="1" fill-rule="nonzero"/></g><path fill="#97c1c8" d="M 121.195312 193.929688 C 112.335938 196.699219 107.953125 201.011719 106.292969 206.011719 C 104.222656 212.234375 110.121094 218.179688 116.382812 216.226562 L 116.84375 216.078125 C 120.160156 215.042969 122.289062 211.941406 122.3125 208.472656 C 122.320312 207.394531 122.679688 206.726562 123.519531 206.464844 C 124.96875 206.011719 125.820312 206.699219 126.667969 209.402344 C 127.691406 212.691406 127.554688 214.960938 126.039062 218.933594 C 123.179688 226.085938 122.128906 230.867188 124.183594 237.4375 L 124.695312 239.082031 C 124.980469 239.988281 125.945312 240.496094 126.851562 240.210938 L 142.023438 235.472656 C 142.929688 235.1875 143.4375 234.222656 143.152344 233.316406 C 142.21875 230.320312 142.324219 227.953125 144.332031 221.808594 C 146.699219 215.132812 148.269531 211.671875 146.066406 204.617188 C 143.226562 195.53125 136.078125 189.28125 121.195312 193.929688 " fill-opacity="1" fill-rule="nonzero"/><g fill="#000000" fill-opacity="1"><g transform="translate(128.888339, 110.927302)"><g><path d="M -2.234375 -7.609375 C -2.703125 -8.617188 -2.953125 -9.65625 -2.984375 -10.71875 C -3.023438 -11.789062 -2.863281 -12.816406 -2.5 -13.796875 C -2.144531 -14.773438 -1.59375 -15.675781 -0.84375 -16.5 C -0.09375 -17.320312 0.828125 -17.988281 1.921875 -18.5 C 3.015625 -19.007812 4.113281 -19.28125 5.21875 -19.3125 C 6.320312 -19.351562 7.363281 -19.203125 8.34375 -18.859375 C 9.320312 -18.515625 10.203125 -17.984375 10.984375 -17.265625 C 11.765625 -16.554688 12.390625 -15.695312 12.859375 -14.6875 L 12.875 -14.640625 C 13.238281 -13.867188 13.46875 -13.09375 13.5625 -12.3125 C 13.65625 -11.539062 13.644531 -10.765625 13.53125 -9.984375 L 14.375 -9.75 C 14.601562 -9.675781 14.816406 -9.570312 15.015625 -9.4375 C 15.210938 -9.300781 15.367188 -9.101562 15.484375 -8.84375 C 15.671875 -8.4375 15.6875 -8.019531 15.53125 -7.59375 C 15.382812 -7.164062 15.109375 -6.859375 14.703125 -6.671875 C 14.492188 -6.566406 14.28125 -6.519531 14.0625 -6.53125 C 13.851562 -6.539062 13.660156 -6.566406 13.484375 -6.609375 L 12.375 -6.953125 C 11.53125 -5.566406 10.3125 -4.503906 8.71875 -3.765625 C 7.625 -3.265625 6.523438 -2.988281 5.421875 -2.9375 C 4.328125 -2.894531 3.289062 -3.046875 2.3125 -3.390625 C 1.34375 -3.734375 0.46875 -4.257812 -0.3125 -4.96875 C -1.101562 -5.6875 -1.734375 -6.550781 -2.203125 -7.5625 Z M 1.015625 -9.1875 L 1.03125 -9.140625 C 1.320312 -8.523438 1.695312 -7.992188 2.15625 -7.546875 C 2.613281 -7.109375 3.128906 -6.773438 3.703125 -6.546875 C 4.285156 -6.328125 4.894531 -6.21875 5.53125 -6.21875 C 6.175781 -6.226562 6.8125 -6.378906 7.4375 -6.671875 C 8.1875 -7.015625 8.75 -7.429688 9.125 -7.921875 L 7.03125 -8.5 C 6.8125 -8.5625 6.601562 -8.660156 6.40625 -8.796875 C 6.207031 -8.941406 6.046875 -9.144531 5.921875 -9.40625 C 5.734375 -9.8125 5.710938 -10.222656 5.859375 -10.640625 C 6.015625 -11.066406 6.296875 -11.375 6.703125 -11.5625 C 7.097656 -11.738281 7.507812 -11.753906 7.9375 -11.609375 L 10.15625 -10.9375 C 10.164062 -11.59375 9.992188 -12.304688 9.640625 -13.078125 L 9.609375 -13.125 C 9.328125 -13.726562 8.957031 -14.25 8.5 -14.6875 C 8.039062 -15.132812 7.519531 -15.472656 6.9375 -15.703125 C 6.363281 -15.929688 5.757812 -16.039062 5.125 -16.03125 C 4.488281 -16.03125 3.851562 -15.878906 3.21875 -15.578125 C 2.59375 -15.296875 2.070312 -14.914062 1.65625 -14.4375 C 1.238281 -13.957031 0.9375 -13.425781 0.75 -12.84375 C 0.5625 -12.269531 0.488281 -11.664062 0.53125 -11.03125 C 0.570312 -10.40625 0.734375 -9.789062 1.015625 -9.1875 Z M 1.015625 -9.1875 "/></g></g></g><g fill="#000000" fill-opacity="1"><g transform="translate(149.61533, 102.017593)"><g/></g></g><g fill="#000000" fill-opacity="1"><g transform="translate(159.460379, 98.885324)"><g><path d="M 0.625 -2.359375 L 3.9375 -15.4375 C 4.0625 -15.894531 4.269531 -16.269531 4.5625 -16.5625 C 4.863281 -16.863281 5.242188 -17.054688 5.703125 -17.140625 L 5.90625 -17.171875 C 6.382812 -17.242188 6.800781 -17.1875 7.15625 -17 C 7.519531 -16.820312 7.832031 -16.535156 8.09375 -16.140625 L 15.5625 -4.890625 C 15.726562 -4.566406 15.820312 -4.347656 15.84375 -4.234375 C 15.914062 -3.765625 15.828125 -3.34375 15.578125 -2.96875 C 15.328125 -2.601562 14.976562 -2.382812 14.53125 -2.3125 C 14.125 -2.25 13.765625 -2.300781 13.453125 -2.46875 C 13.148438 -2.644531 12.894531 -2.890625 12.6875 -3.203125 L 11.21875 -5.46875 L 4.421875 -4.3125 L 3.765625 -1.59375 C 3.679688 -1.226562 3.519531 -0.925781 3.28125 -0.6875 C 3.039062 -0.457031 2.742188 -0.316406 2.390625 -0.265625 C 1.941406 -0.179688 1.539062 -0.269531 1.1875 -0.53125 C 0.832031 -0.800781 0.617188 -1.160156 0.546875 -1.609375 C 0.523438 -1.722656 0.519531 -1.84375 0.53125 -1.96875 C 0.550781 -2.09375 0.582031 -2.222656 0.625 -2.359375 Z M 5.171875 -7.53125 L 9.453125 -8.25 L 6.453125 -12.984375 Z M 5.171875 -7.53125 "/></g></g></g><g fill="#000000" fill-opacity="1"><g transform="translate(179.686364, 95.730577)"><g><path d="M 1.890625 -1.546875 L 1.953125 -14.03125 C 1.960938 -14.507812 2.132812 -14.914062 2.46875 -15.25 C 2.8125 -15.59375 3.222656 -15.765625 3.703125 -15.765625 L 4.0625 -15.75 C 4.476562 -15.75 4.820312 -15.65625 5.09375 -15.46875 C 5.363281 -15.28125 5.617188 -15.035156 5.859375 -14.734375 L 12.4375 -5.953125 L 12.484375 -14.03125 C 12.492188 -14.507812 12.664062 -14.910156 13 -15.234375 C 13.332031 -15.566406 13.734375 -15.734375 14.203125 -15.734375 C 14.679688 -15.722656 15.082031 -15.550781 15.40625 -15.21875 C 15.738281 -14.894531 15.898438 -14.492188 15.890625 -14.015625 L 15.828125 -1.546875 C 15.816406 -1.066406 15.644531 -0.65625 15.3125 -0.3125 C 14.976562 0.0195312 14.570312 0.179688 14.09375 0.171875 L 13.984375 0.171875 C 13.566406 0.171875 13.222656 0.078125 12.953125 -0.109375 C 12.679688 -0.296875 12.425781 -0.539062 12.1875 -0.84375 L 5.34375 -9.9375 L 5.296875 -1.53125 C 5.285156 -1.050781 5.113281 -0.644531 4.78125 -0.3125 C 4.457031 0.0078125 4.054688 0.164062 3.578125 0.15625 C 3.109375 0.15625 2.707031 -0.00390625 2.375 -0.328125 C 2.039062 -0.660156 1.878906 -1.066406 1.890625 -1.546875 Z M 1.890625 -1.546875 "/></g></g></g><g fill="#000000" fill-opacity="1"><g transform="translate(200.679056, 96.154329)"><g><path d="M 4.359375 -13.375 C 4.441406 -13.851562 4.679688 -14.226562 5.078125 -14.5 C 5.472656 -14.78125 5.90625 -14.875 6.375 -14.78125 L 10.703125 -14 C 11.921875 -13.769531 12.988281 -13.367188 13.90625 -12.796875 C 14.832031 -12.222656 15.597656 -11.523438 16.203125 -10.703125 C 16.804688 -9.878906 17.21875 -8.960938 17.4375 -7.953125 C 17.664062 -6.953125 17.679688 -5.910156 17.484375 -4.828125 L 17.46875 -4.78125 C 17.269531 -3.695312 16.882812 -2.71875 16.3125 -1.84375 C 15.75 -0.976562 15.039062 -0.265625 14.1875 0.296875 C 13.332031 0.859375 12.367188 1.242188 11.296875 1.453125 C 10.234375 1.671875 9.09375 1.664062 7.875 1.4375 L 3.546875 0.65625 C 3.078125 0.5625 2.707031 0.320312 2.4375 -0.0625 C 2.164062 -0.457031 2.070312 -0.882812 2.15625 -1.34375 Z M 8.4375 -1.625 C 9.125 -1.5 9.773438 -1.492188 10.390625 -1.609375 C 11.003906 -1.722656 11.546875 -1.945312 12.015625 -2.28125 C 12.492188 -2.625 12.898438 -3.054688 13.234375 -3.578125 C 13.578125 -4.097656 13.8125 -4.695312 13.9375 -5.375 L 13.9375 -5.421875 C 14.070312 -6.109375 14.070312 -6.753906 13.9375 -7.359375 C 13.800781 -7.972656 13.570312 -8.523438 13.25 -9.015625 C 12.925781 -9.503906 12.5 -9.910156 11.96875 -10.234375 C 11.4375 -10.566406 10.828125 -10.796875 10.140625 -10.921875 L 7.5 -11.40625 L 5.796875 -2.109375 Z M 8.4375 -1.625 "/></g></g></g><g fill="#000000" fill-opacity="1"><g transform="translate(221.301139, 100.530992)"><g/></g></g><g fill="#000000" fill-opacity="1"><g transform="translate(231.162969, 103.609912)"><g><path d="M 1.875 -1.5625 L 12.078125 -10.390625 C 12.441406 -10.691406 12.828125 -10.878906 13.234375 -10.953125 C 13.648438 -11.035156 14.070312 -10.972656 14.5 -10.765625 L 14.671875 -10.6875 C 15.109375 -10.476562 15.421875 -10.191406 15.609375 -9.828125 C 15.804688 -9.472656 15.898438 -9.054688 15.890625 -8.578125 L 15.546875 4.921875 C 15.503906 5.273438 15.457031 5.503906 15.40625 5.609375 C 15.207031 6.035156 14.894531 6.328125 14.46875 6.484375 C 14.050781 6.640625 13.632812 6.617188 13.21875 6.421875 C 12.851562 6.253906 12.59375 6.007812 12.4375 5.6875 C 12.289062 5.375 12.222656 5.023438 12.234375 4.640625 L 12.328125 1.96875 L 6.109375 -0.984375 L 4 0.859375 C 3.726562 1.109375 3.425781 1.257812 3.09375 1.3125 C 2.757812 1.363281 2.425781 1.3125 2.09375 1.15625 C 1.6875 0.957031 1.414062 0.648438 1.28125 0.234375 C 1.144531 -0.179688 1.175781 -0.59375 1.375 -1 C 1.414062 -1.101562 1.476562 -1.203125 1.5625 -1.296875 C 1.65625 -1.390625 1.757812 -1.476562 1.875 -1.5625 Z M 8.5625 -3.203125 L 12.484375 -1.328125 L 12.734375 -6.953125 Z M 8.5625 -3.203125 "/></g></g></g><g fill="#000000" fill-opacity="1"><g transform="translate(161.898968, 295.56429)"><g><path d="M 1.78125 -2.140625 L 5.453125 -4.15625 C 5.847656 -4.382812 6.191406 -4.585938 6.484375 -4.765625 C 6.773438 -4.953125 7.015625 -5.132812 7.203125 -5.3125 C 7.390625 -5.488281 7.539062 -5.671875 7.65625 -5.859375 C 7.769531 -6.046875 7.847656 -6.253906 7.890625 -6.484375 C 7.972656 -6.972656 7.894531 -7.363281 7.65625 -7.65625 C 7.425781 -7.945312 7.09375 -8.132812 6.65625 -8.21875 C 6.289062 -8.28125 5.957031 -8.253906 5.65625 -8.140625 C 5.363281 -8.035156 5.03125 -7.851562 4.65625 -7.59375 C 4.550781 -7.519531 4.421875 -7.457031 4.265625 -7.40625 C 4.109375 -7.351562 3.929688 -7.347656 3.734375 -7.390625 C 3.429688 -7.441406 3.191406 -7.597656 3.015625 -7.859375 C 2.835938 -8.128906 2.78125 -8.414062 2.84375 -8.71875 C 2.894531 -9.007812 3.035156 -9.25 3.265625 -9.4375 C 3.804688 -9.875 4.382812 -10.179688 5 -10.359375 C 5.625 -10.535156 6.359375 -10.546875 7.203125 -10.390625 C 7.773438 -10.285156 8.285156 -10.109375 8.734375 -9.859375 C 9.191406 -9.609375 9.5625 -9.300781 9.84375 -8.9375 C 10.125 -8.582031 10.316406 -8.171875 10.421875 -7.703125 C 10.523438 -7.234375 10.523438 -6.738281 10.421875 -6.21875 L 10.421875 -6.1875 C 10.328125 -5.71875 10.1875 -5.3125 10 -4.96875 C 9.8125 -4.625 9.566406 -4.3125 9.265625 -4.03125 C 8.960938 -3.75 8.597656 -3.476562 8.171875 -3.21875 C 7.742188 -2.96875 7.238281 -2.695312 6.65625 -2.40625 L 4.578125 -1.34375 L 8.484375 -0.609375 C 8.785156 -0.554688 9.019531 -0.40625 9.1875 -0.15625 C 9.351562 0.0820312 9.410156 0.347656 9.359375 0.640625 C 9.296875 0.941406 9.144531 1.175781 8.90625 1.34375 C 8.664062 1.507812 8.394531 1.566406 8.09375 1.515625 L 2.015625 0.375 C 1.628906 0.300781 1.328125 0.140625 1.109375 -0.109375 C 0.898438 -0.359375 0.832031 -0.671875 0.90625 -1.046875 C 1 -1.535156 1.289062 -1.898438 1.78125 -2.140625 Z M 1.78125 -2.140625 "/></g></g></g><g fill="#000000" fill-opacity="1"><g transform="translate(174.820019, 297.83888)"><g><path d="M 6.625 -11.203125 C 7.375 -11.160156 8.050781 -10.972656 8.65625 -10.640625 C 9.257812 -10.304688 9.765625 -9.863281 10.171875 -9.3125 C 10.578125 -8.757812 10.878906 -8.117188 11.078125 -7.390625 C 11.285156 -6.671875 11.367188 -5.890625 11.328125 -5.046875 L 11.328125 -5.015625 C 11.273438 -4.191406 11.101562 -3.429688 10.8125 -2.734375 C 10.53125 -2.046875 10.148438 -1.445312 9.671875 -0.9375 C 9.203125 -0.4375 8.644531 -0.0546875 8 0.203125 C 7.351562 0.472656 6.648438 0.582031 5.890625 0.53125 C 5.128906 0.488281 4.445312 0.300781 3.84375 -0.03125 C 3.25 -0.363281 2.75 -0.804688 2.34375 -1.359375 C 1.9375 -1.910156 1.632812 -2.550781 1.4375 -3.28125 C 1.238281 -4.007812 1.160156 -4.78125 1.203125 -5.59375 L 1.21875 -5.625 C 1.257812 -6.445312 1.421875 -7.207031 1.703125 -7.90625 C 1.992188 -8.613281 2.375 -9.21875 2.84375 -9.71875 C 3.320312 -10.226562 3.878906 -10.613281 4.515625 -10.875 C 5.160156 -11.144531 5.863281 -11.253906 6.625 -11.203125 Z M 6.0625 -1.703125 C 6.4375 -1.679688 6.78125 -1.753906 7.09375 -1.921875 C 7.414062 -2.085938 7.691406 -2.320312 7.921875 -2.625 C 8.148438 -2.925781 8.332031 -3.289062 8.46875 -3.71875 C 8.613281 -4.144531 8.703125 -4.617188 8.734375 -5.140625 L 8.75 -5.171875 C 8.769531 -5.691406 8.734375 -6.175781 8.640625 -6.625 C 8.546875 -7.082031 8.398438 -7.476562 8.203125 -7.8125 C 8.003906 -8.144531 7.753906 -8.410156 7.453125 -8.609375 C 7.160156 -8.804688 6.828125 -8.921875 6.453125 -8.953125 C 6.085938 -8.972656 5.742188 -8.898438 5.421875 -8.734375 C 5.109375 -8.578125 4.835938 -8.347656 4.609375 -8.046875 C 4.390625 -7.742188 4.207031 -7.375 4.0625 -6.9375 C 3.914062 -6.5 3.828125 -6.019531 3.796875 -5.5 L 3.796875 -5.46875 C 3.765625 -4.945312 3.796875 -4.460938 3.890625 -4.015625 C 3.984375 -3.578125 4.125 -3.191406 4.3125 -2.859375 C 4.5 -2.523438 4.742188 -2.253906 5.046875 -2.046875 C 5.347656 -1.847656 5.6875 -1.734375 6.0625 -1.703125 Z M 6.0625 -1.703125 "/></g></g></g><g fill="#000000" fill-opacity="1"><g transform="translate(189.66007, 298.475269)"><g><path d="M 1.1875 -2.53125 L 4.234375 -5.375 C 4.578125 -5.695312 4.863281 -5.984375 5.09375 -6.234375 C 5.332031 -6.484375 5.519531 -6.710938 5.65625 -6.921875 C 5.800781 -7.140625 5.898438 -7.351562 5.953125 -7.5625 C 6.015625 -7.78125 6.039062 -8.007812 6.03125 -8.25 C 6 -8.738281 5.832031 -9.09375 5.53125 -9.3125 C 5.226562 -9.539062 4.851562 -9.640625 4.40625 -9.609375 C 4.039062 -9.585938 3.726562 -9.488281 3.46875 -9.3125 C 3.207031 -9.132812 2.925781 -8.863281 2.625 -8.5 C 2.539062 -8.414062 2.429688 -8.328125 2.296875 -8.234375 C 2.160156 -8.148438 1.992188 -8.101562 1.796875 -8.09375 C 1.484375 -8.070312 1.207031 -8.164062 0.96875 -8.375 C 0.738281 -8.582031 0.613281 -8.84375 0.59375 -9.15625 C 0.570312 -9.445312 0.648438 -9.710938 0.828125 -9.953125 C 1.242188 -10.503906 1.726562 -10.941406 2.28125 -11.265625 C 2.832031 -11.597656 3.539062 -11.796875 4.40625 -11.859375 C 4.988281 -11.898438 5.523438 -11.851562 6.015625 -11.71875 C 6.515625 -11.582031 6.945312 -11.375 7.3125 -11.09375 C 7.675781 -10.820312 7.96875 -10.472656 8.1875 -10.046875 C 8.40625 -9.628906 8.53125 -9.15625 8.5625 -8.625 L 8.5625 -8.59375 C 8.59375 -8.113281 8.5625 -7.679688 8.46875 -7.296875 C 8.375 -6.921875 8.210938 -6.554688 7.984375 -6.203125 C 7.753906 -5.859375 7.460938 -5.507812 7.109375 -5.15625 C 6.753906 -4.800781 6.335938 -4.410156 5.859375 -3.984375 L 4.109375 -2.4375 L 8.078125 -2.703125 C 8.378906 -2.722656 8.640625 -2.632812 8.859375 -2.4375 C 9.085938 -2.238281 9.207031 -1.988281 9.21875 -1.6875 C 9.238281 -1.382812 9.148438 -1.125 8.953125 -0.90625 C 8.765625 -0.6875 8.519531 -0.566406 8.21875 -0.546875 L 2.046875 -0.140625 C 1.660156 -0.109375 1.332031 -0.1875 1.0625 -0.375 C 0.789062 -0.570312 0.644531 -0.859375 0.625 -1.234375 C 0.59375 -1.734375 0.78125 -2.164062 1.1875 -2.53125 Z M 1.1875 -2.53125 "/></g></g></g><g fill="#000000" fill-opacity="1"><g transform="translate(202.701666, 297.440481)"><g><path d="M 1.546875 -3.390625 C 1.691406 -3.421875 1.820312 -3.421875 1.9375 -3.390625 C 2.050781 -3.367188 2.160156 -3.332031 2.265625 -3.28125 C 2.648438 -3.082031 3.023438 -2.957031 3.390625 -2.90625 C 3.753906 -2.863281 4.140625 -2.882812 4.546875 -2.96875 C 5.066406 -3.0625 5.46875 -3.269531 5.75 -3.59375 C 6.039062 -3.914062 6.140625 -4.332031 6.046875 -4.84375 L 6.046875 -4.875 C 5.953125 -5.351562 5.695312 -5.691406 5.28125 -5.890625 C 4.863281 -6.085938 4.363281 -6.128906 3.78125 -6.015625 C 3.539062 -5.972656 3.335938 -5.921875 3.171875 -5.859375 C 3.003906 -5.796875 2.851562 -5.738281 2.71875 -5.6875 C 2.59375 -5.632812 2.484375 -5.582031 2.390625 -5.53125 C 2.304688 -5.476562 2.222656 -5.441406 2.140625 -5.421875 C 1.953125 -5.390625 1.769531 -5.394531 1.59375 -5.4375 C 1.414062 -5.476562 1.191406 -5.570312 0.921875 -5.71875 C 0.546875 -5.894531 0.332031 -6.195312 0.28125 -6.625 L -0.203125 -10.453125 C -0.234375 -10.742188 -0.164062 -11.015625 0 -11.265625 C 0.164062 -11.515625 0.398438 -11.664062 0.703125 -11.71875 L 5.578125 -12.625 C 5.867188 -12.675781 6.132812 -12.613281 6.375 -12.4375 C 6.625 -12.257812 6.78125 -12.023438 6.84375 -11.734375 C 6.894531 -11.429688 6.832031 -11.15625 6.65625 -10.90625 C 6.488281 -10.65625 6.257812 -10.503906 5.96875 -10.453125 L 2.1875 -9.75 L 2.4375 -7.796875 C 2.644531 -7.878906 2.851562 -7.960938 3.0625 -8.046875 C 3.28125 -8.128906 3.539062 -8.203125 3.84375 -8.265625 C 4.394531 -8.367188 4.921875 -8.394531 5.421875 -8.34375 C 5.929688 -8.289062 6.390625 -8.148438 6.796875 -7.921875 C 7.210938 -7.691406 7.5625 -7.375 7.84375 -6.96875 C 8.125 -6.5625 8.320312 -6.046875 8.4375 -5.421875 L 8.4375 -5.375 C 8.550781 -4.789062 8.550781 -4.238281 8.4375 -3.71875 C 8.332031 -3.195312 8.125 -2.734375 7.8125 -2.328125 C 7.507812 -1.929688 7.117188 -1.59375 6.640625 -1.3125 C 6.160156 -1.039062 5.613281 -0.847656 5 -0.734375 C 4.21875 -0.585938 3.53125 -0.5625 2.9375 -0.65625 C 2.34375 -0.75 1.789062 -0.90625 1.28125 -1.125 C 1.113281 -1.207031 0.96875 -1.316406 0.84375 -1.453125 C 0.71875 -1.585938 0.632812 -1.765625 0.59375 -1.984375 C 0.539062 -2.296875 0.601562 -2.59375 0.78125 -2.875 C 0.96875 -3.15625 1.222656 -3.328125 1.546875 -3.390625 Z M 1.546875 -3.390625 "/></g></g></g></svg>